# xmcd
#
# Track frame offsets: 
#        150
#        36950
#        46057
#        89328
#        107612
#        127357
#        134204
#        168011
#        183252
#        218226
#        234256
#        250127
#
# Disc length: 3570 seconds
#
# Revision: 0
# Processed by: cddbd v1.5.2PL0 Copyright (c) Steve Scherf et al.
# Submitted via: ExactAudioCopy v1.1
#
DISCID=a50df00c
DTITLE=Urbanus - Trecto Pnix - CD 2
DYEAR=2019
DGENRE=Comedy
TTITLE0=Kapodaster Van Wacht (Live)
TTITLE1=Het Ruikt Hier Naar Spook (Live)
TTITLE2=De Koffiezet In De Broek (Live)
TTITLE3=De Mantelzorger (Live)
TTITLE4=Radio Combi (Live)
TTITLE5=Piksossiske (Live)
TTITLE6=Waar Is Mijn Deur? (Live)
TTITLE7=Cowboy Boyco (Live)
TTITLE8=De Krultang (Live)
TTITLE9=De Kleine Napo (Live)
TTITLE10=Ugly Blind Eurbie (Live)
TTITLE11=De Grote Zeemvellenschaarste Van 1802 (Live)
EXTD=
EXTT0=
EXTT1=
EXTT2=
EXTT3=
EXTT4=
EXTT5=
EXTT6=
EXTT7=
EXTT8=
EXTT9=
EXTT10=
EXTT11=
PLAYORDER=
